<!-- https://vectorcraftr.com/?search=sketch -->
<?xml version="1.0" encoding="utf-8" ?>
<svg xmlns="http://www.w3.org/2000/svg" xmlns:xlink="http://www.w3.org/1999/xlink" viewBox="0 0 1024 1024">
	<path d="M283.151 91.6882C287.439 91.2137 292.089 91.44 296.36 92.0204C310.624 93.9587 321.335 101.713 329.971 112.936C366.461 115.092 403.015 116.171 439.519 118.113L828.972 140.066C830.908 140.188 835.951 140.213 837.332 141.505C838.497 142.594 838.819 144.612 838.86 146.114C839.072 154.003 834.477 174.892 832.935 183.721L819.409 262.219C807.372 332.489 797.222 402.922 786.543 473.397L765.388 612.145C763.362 625.136 762.485 638.506 760.126 651.399C759.694 653.759 758.971 657.228 757.15 658.958C755.67 660.366 753.362 661.307 751.327 661.362C745.326 661.523 738.924 660.561 732.917 660.119L693.807 657.311L562.047 648.213C543.856 647.005 525.479 645.02 507.271 644.537Q512.774 671.395 518.606 698.184C520.446 706.557 527.803 734.384 527.303 741.693C525.008 744.579 519.602 745.453 516.124 746.468C508.885 748.81 501.351 750.393 493.989 752.325C490.176 775.61 487.614 799.162 484.422 822.545C481.648 842.864 478.029 863.467 476.445 883.9C480.026 886.01 484.476 887.138 488.411 888.474C499.183 892.132 515.915 896.851 524.861 903.484C527.336 905.319 529.532 907.769 529.929 910.947C530.127 912.53 529.656 914.041 528.635 915.254C519.733 925.824 447.211 931.318 430.287 931.06C424.631 930.974 419.216 928.624 413.602 928.658C403.867 928.716 393.555 930.773 383.842 931.807C371.777 933.091 345.247 937.633 335.553 929.362Q335.107 928.988 334.701 928.571Q334.295 928.154 333.933 927.698Q333.572 927.242 333.258 926.751Q332.945 926.261 332.683 925.741Q332.421 925.221 332.213 924.678Q332.005 924.134 331.854 923.572Q331.702 923.01 331.609 922.436Q331.515 921.861 331.48 921.28C331.112 915.999 334.37 911.817 337.577 908.012C338.516 893.555 340.548 878.961 342.017 864.535Q345.442 831.324 348.135 798.046C349.175 786.356 350.665 774.531 351.029 762.804C343.876 761.833 336.967 760.98 330.349 757.95C330.579 744.899 333.055 731.01 335.104 718.105C329.759 715.985 326.066 712.7 323.108 707.743C310.373 686.399 317.828 647.157 323.592 624.079C299.09 621.597 274.331 620.868 249.755 619.308C240.102 618.696 230.01 618.493 220.451 617.105C217.779 616.718 214.949 616.096 212.709 614.539C210.892 611.862 211.405 608.696 211.562 605.605C212.466 587.824 215.209 570.02 216.806 552.273Q223.319 479.633 231.002 407.108L249.515 226.954C251.281 210.689 252.653 194.359 254.659 178.125C246.979 170.141 241.541 160.828 239.819 149.747C237.761 136.504 241.092 122.282 249.152 111.54C257.636 100.231 269.253 93.6721 283.151 91.6882ZM300.057 213.394C296.319 214.194 292.558 215.121 288.755 215.532C286.904 206.895 284.593 198.358 282.373 189.81C273.452 188.037 265.816 186.013 258.081 180.984C256.899 187.55 256.654 194.457 255.998 201.112L252.069 240.251L226.574 489.718L218.877 571.498L216.381 596.819C215.95 601.058 215.188 605.512 215.114 609.757C215.101 610.495 215.328 611.049 215.651 611.694C223.894 615.273 262.029 615.965 273.552 616.651C290.575 617.665 307.662 619.078 324.706 619.608C328.358 605.966 332.027 592.306 337.274 579.172Q315.572 578.328 293.853 578.427C287.024 578.395 279.781 578.931 273.015 578.28C270.965 578.083 267.92 577.78 266.412 576.259C264.743 574.575 264.413 571.102 264.355 568.88C264.258 565.078 264.885 561.096 265.2 557.297L267.105 534.002C268.548 515.833 269.217 497.532 271.199 479.409C271.406 477.524 271.78 473.616 273.275 472.407C275.127 470.912 278.281 470.705 280.571 470.66C286.505 470.542 292.688 471.497 298.607 472.043C310.617 473.149 323.001 474.454 335.063 474.607C325.526 464.754 319.627 455.462 319.819 441.257C319.904 434.979 320.978 428.248 322.703 422.221C316.233 421.372 285.572 418.694 282.73 415.61C281.546 414.325 281.842 409.349 281.953 407.511C282.369 400.589 283.57 393.595 284.413 386.707Q286.251 371.431 287.557 356.1Q288.579 345.388 289.157 334.643C289.393 329.286 289.141 323.688 289.924 318.4C290.234 316.308 290.672 314.606 291.951 312.91C294.028 311.944 296.21 311.76 298.471 311.663C310.112 311.163 381.945 314.88 389.833 318.071C392.003 318.949 393.22 320.745 394.428 322.649C394.983 335.277 394.249 352.657 391.701 364.881C408.851 364.646 424.748 366.58 437.706 379.105Q438.897 380.237 440.007 381.448C447.239 380.626 453.94 381.696 459.83 386.325C464.069 389.657 467.123 394.643 467.735 400.037C468.129 403.518 467.392 406.995 465.11 409.719C462.433 412.913 459.181 414.269 455.15 414.752C461.441 427.164 463.939 440.858 459.607 454.416C456.418 464.395 449.372 473.504 439.965 478.265Q437.799 479.357 435.59 480.36C441.589 486.495 443.095 490.273 443.006 498.724C463.036 511.918 485.057 524.812 509.958 519.647C524.571 516.616 536.793 509.206 548.759 500.63C559.591 492.221 572.676 479.337 574.537 465.002C575.374 458.558 573.411 451.538 572.256 445.217L571.334 445.041C564.363 443.747 536.594 442.758 533.12 438.128C531.51 435.982 531.074 432.898 530.925 430.293C530.507 422.962 531.255 415.178 531.694 407.823Q533.189 383.956 535.495 360.154C536.234 351.85 536.029 342.684 537.72 334.603C538.128 332.652 538.65 330.841 540.44 329.747C550.12 323.834 596.168 332.929 609.593 334.017Q618.617 334.717 627.655 335.186C632.195 335.386 638.295 334.816 642.614 336.206C644.22 336.723 645.246 337.772 645.903 339.32C647.355 342.742 646.819 346.755 646.549 350.359C645.297 367.072 641.889 383.483 639.838 400.095C638.67 409.555 636.708 441.88 634.104 448.535C633.378 450.393 631.928 451.446 630.096 452.103C626.664 453.333 621.873 452.732 618.202 452.827C616.322 460.231 612.986 466.769 610.625 473.948C608.216 481.276 606.265 488.762 603.372 495.925C591.617 525.038 571.074 547.497 544.336 563.516C528.598 572.944 511.889 578.301 494.139 582.291C499.062 601.507 501.939 621.259 506.544 640.539L656.931 651.009Q687.433 652.887 717.907 655.165C727.396 655.905 737.122 656.225 746.518 657.677C747.465 641.254 751.785 624.981 754.046 608.688L769.603 492.802L798.961 287.112L809.91 204.829C812.514 184.758 814.89 164.595 818.207 144.625C810.303 143.427 802.064 143.298 794.082 142.755L753.244 140.002L619.959 132.335L404.242 120.424C380.372 119.268 356.441 117.581 332.556 116.973C339.76 134.747 340.731 146.119 334.344 164.381C348.338 165.596 362.374 166.035 376.4 166.69C383.652 167.028 391.433 166.961 398.554 168.228C401.477 168.748 404.78 169.323 406.842 171.642C408.979 174.046 408.955 177.114 408.642 180.142C408.077 185.597 406.995 190.999 406.455 196.46C405.505 206.062 405.379 215.914 405.052 225.561C404.626 238.12 405.16 254.047 403.356 266.209C403.105 267.894 402.295 270.35 400.769 271.344C399.097 272.433 395.284 272.204 393.279 272.189C376.247 272.063 359.202 270.251 342.188 269.539C330.91 269.068 319.564 269.786 308.336 269.25C306.25 269.15 303.677 268.983 301.748 268.215C300.465 267.703 299.973 266.86 299.486 265.614C296.222 257.253 298.667 222.761 300.057 213.394ZM541.841 333.046C539.7 345.496 539.419 358.599 538.33 371.195C536.737 389.602 534.279 408.741 534.529 427.216C534.565 429.944 534.8 432.555 535.572 435.186C539.658 439.25 565.421 440.737 572.45 441.229C574.029 439.082 575.663 437.067 578.442 436.604C580.452 436.269 582.276 436.816 584.208 437.308C584.371 437.349 584.534 437.387 584.697 437.427C586.875 432.234 590.711 419.165 596.015 416.6C597.407 415.926 599.112 416.044 600.484 416.695C602.003 417.417 603.011 418.608 603.526 420.213C605.064 425.007 602.564 431.538 600.83 436.06C604.912 436.179 608.263 436.359 611.948 438.342C615.446 441.466 617.378 444.464 618.589 449.001C621.979 448.991 626.947 449.626 629.839 447.622C633.107 439.476 635.143 405.778 636.675 394.246C638.412 381.17 641.27 368.228 642.588 355.103C642.939 351.604 644.179 344.731 642.694 341.587C642.171 340.479 641.757 340.289 640.622 339.96C633.586 337.921 617.572 338.519 609.271 337.778C588.971 335.968 568.024 330.789 547.681 331.612L541.841 333.046ZM418.814 893.764C420.477 882.418 432.837 767.925 431.29 762.816C430.359 761.905 430.219 762.081 428.932 762.104C428.277 762.115 428.526 762.101 427.856 762.198Q419.761 762.87 411.646 763.233Q408.59 790.979 405.183 818.685C402.39 840.642 399.212 862.67 397.678 884.754C400.684 886.116 403.671 887.474 406.768 888.623C410.75 890.35 414.738 892.28 418.814 893.764ZM329.003 206.756Q316.509 209.31 304.172 212.536C302.738 221.072 299.117 258.485 303.549 264.315C304.61 265.711 309.769 265.911 311.567 265.969C321.267 266.281 331.023 265.856 340.746 266.123C351.038 266.406 361.34 267.384 371.625 267.533C376.627 267.587 395.222 269.675 398.709 268.148C402.074 260.895 401.533 207.93 402.966 194.603C403.411 190.464 405.958 179.165 404.775 175.691C404.325 174.371 403.377 173.467 402.12 172.93C395.367 170.05 343.307 168.526 332.419 168.398C329.72 172.494 326.781 176.421 323.366 179.953C325.199 188.893 327.291 197.796 329.003 206.756ZM338.46 575.425C341.561 567.24 344.717 559.057 348.586 551.197C354.781 538.341 362.538 527.158 371.931 516.469C367.188 515.164 363.582 513.027 361.139 508.595C359.454 505.537 358.853 502.028 359.835 498.641C360.826 495.223 362.586 493.381 365.69 491.787C367.702 490.753 370.266 489.928 371.807 488.247L371.849 487.319C367.307 486.148 362.54 486.522 357.992 485.484C352.082 484.135 346.829 480.535 341.018 479.263C332.361 477.367 322.503 477.562 313.642 476.938C302.613 476.161 291.611 474.92 280.58 474.218C278.749 474.397 277.426 474.249 275.915 475.337C273.607 484.193 273.293 502.813 272.5 512.577Q270.613 534.444 268.951 556.329C268.644 560.696 268.019 565.193 267.887 569.542C267.849 570.79 267.931 571.859 268.523 572.98C269.022 573.924 269.963 574.178 270.959 574.356C279.055 575.803 288.472 574.963 296.694 574.995Q317.578 575.063 338.46 575.425ZM387.684 495.914C389.022 498.946 388.741 501.155 388.45 504.382C395.158 500.599 401.634 497.405 409.175 495.641C409.584 490.44 410.539 484.75 414.812 481.223C416.504 479.828 420.823 478.857 421.38 476.879L421.056 476.544C408.361 483.956 395.935 486.502 381.373 487.006C380.014 487.053 377.955 486.89 377.163 488.109C379.881 491.52 384.865 491.753 387.684 495.914ZM284.252 95.6663C270.79 97.7536 260.452 102.797 252.248 113.999Q251.559 114.931 250.917 115.895Q250.275 116.86 249.681 117.855Q249.088 118.85 248.545 119.874Q248.001 120.897 247.509 121.946Q247.017 122.995 246.577 124.068Q246.138 125.14 245.752 126.232Q245.366 127.325 245.035 128.435Q244.704 129.546 244.428 130.671Q244.152 131.797 243.932 132.934Q243.713 134.072 243.549 135.219Q243.386 136.367 243.28 137.52Q243.174 138.674 243.125 139.832Q243.076 140.99 243.085 142.148Q243.094 143.307 243.16 144.464Q243.225 145.621 243.349 146.773Q243.472 147.925 243.652 149.07C245.479 160.806 251.718 171.436 261.436 178.347C268.911 183.662 277.654 186.024 286.761 184.401C289.708 183.876 292.577 182.981 295.438 182.115Q292.871 169.627 289.645 157.293C286.657 158.315 284.188 159.404 281.008 158.472L280.7 157.75C282.676 154.339 286.252 153.667 289.774 152.543C293.143 151.317 301.616 147.663 304.859 149.879C305.069 150.022 305.231 150.225 305.416 150.398C304.22 152.671 300.627 153.93 298.299 154.68C296.698 155.197 295.063 155.625 293.438 156.059C295.504 164.148 297.037 172.913 299.811 180.756C306.203 179.291 316.157 178.545 321.653 175.144C323.601 173.939 325.04 172.006 326.237 170.088C333.774 158.017 336.975 145.644 333.561 131.624C330.571 119.346 323.367 108.528 312.457 101.938C303.596 96.5857 294.459 95.0702 284.252 95.6663ZM347.353 384.323C359.068 374.805 372.699 366.697 388.073 365.366C389.033 358.477 392.414 328.05 389.89 322.65C382.184 318.108 307.91 314.542 295.57 315.211C294.43 315.898 293.934 316.067 293.597 317.476C293.09 319.601 293.4 322.742 293.298 324.969Q292.852 335.658 292.168 346.335Q290.64 365.119 288.758 383.871C287.938 391.529 284.269 405.925 285.836 412.994C286.089 413.293 286.276 413.664 286.596 413.89C287.767 414.715 317.236 417.672 320.383 417.923C321.457 418.009 322.541 418.037 323.618 418.057C329.582 404.869 336.886 394.343 347.353 384.323Z"/>
	<path d="M672.862 186.071C686.202 185.494 702.012 188.473 715.65 189.527Q731.081 190.656 746.53 191.509C753.152 191.899 760.531 191.688 766.941 193.464C768.631 193.933 769.906 194.064 770.758 195.682C773.781 201.428 767.395 229.583 766.61 238.536C765.637 249.626 765.226 260.846 764.877 271.97C764.629 279.877 765.601 291.679 763.167 299.052C762.429 301.287 761.123 301.959 759.14 302.946C752.937 303.903 726.627 300.332 719.05 299.772C703.824 298.648 688.436 298.611 673.259 297.178C670.503 296.918 666.297 296.674 663.836 295.473C662.458 294.8 661.155 293.242 660.587 291.841C659.581 289.358 659.915 286.357 660.072 283.735C660.556 275.606 661.814 267.537 662.637 259.438C664.181 244.249 665.465 228.937 666.664 213.716C667.078 208.464 666.56 193.186 668.722 189.325C669.74 187.507 670.972 186.797 672.862 186.071ZM758.532 299.42C759.425 297.732 760.056 296.181 760.367 294.286C761.512 287.296 761.069 279.864 761.275 272.794C761.656 259.755 762.09 246.525 763.571 233.563C764.406 226.254 769.117 203.951 768.151 198.677C766.903 196.936 764.44 196.464 762.442 196.121C757.702 195.308 752.605 195.372 747.796 195.118Q733.826 194.419 719.871 193.465C704.949 192.349 688.324 189.325 673.643 189.492C672.48 190.932 671.939 191.895 671.662 193.736C670.761 199.712 670.745 205.965 670.349 212Q669.352 226.054 668.111 240.089Q666.938 253.929 665.497 267.743C664.833 274.151 663.163 281.593 663.947 287.984C664.128 289.46 664.422 290.531 665.189 291.8C667.701 293.102 671.782 293.251 674.598 293.499C690.46 294.898 706.464 295.052 722.353 296.344C732.493 297.169 749.204 299.947 758.532 299.42Z"/>
	<path d="M498.364 176.177C516.943 176.017 535.695 177.241 554.26 178.008C565.621 178.477 577.205 178.269 588.52 179.288C591.366 179.544 594.517 179.935 596.449 182.237C597.682 191.379 595.165 208.12 594.565 217.973C593.633 233.308 593.526 248.472 593.568 263.824C593.582 268.922 594.739 277.689 592.005 282.183C590.725 284.286 588.867 284.905 586.59 285.467C570.998 285.908 555.515 285.063 539.938 284.898C530.831 284.801 496.618 286.442 489.558 283.374C488.447 282.891 487.647 282.421 487.28 281.215C485.281 274.639 490.61 182.502 493.4 178.566C494.633 176.827 496.414 176.54 498.364 176.177ZM586.377 281.68C587.786 281.287 588.251 281.354 588.976 279.982C591.291 275.597 589.807 238.885 590.106 231.11C590.286 226.444 593.719 186.244 592.964 184.629C592.623 183.898 591.919 183.769 591.182 183.577C583.819 181.659 564.81 182.048 556.348 181.756C536.546 181.073 516.515 179.609 496.718 180.033C494.307 189.698 488.665 270.618 490.48 279.703C494.834 282.577 534.238 281.258 541.821 281.342C556.715 281.506 571.481 282.472 586.377 281.68Z"/>
	<path d="M634.184 493.484C647.376 493.089 664.101 496.224 677.654 497.394C692.075 498.639 706.674 498.662 721.034 500.099C723.391 500.334 726.116 500.64 728.113 502.003C729.899 503.221 731.181 505.141 731.443 507.291C732.606 516.851 728.126 542.091 727.109 553.418Q725.834 567.74 724.828 582.083C724.437 588.379 724.438 594.785 723.664 601.048C723.361 603.504 722.754 606.48 721.147 608.447C719.795 610.103 718.173 610.515 716.133 610.728C710.982 610.328 705.824 609.299 700.69 608.663Q682.905 606.524 665.078 604.778C658.279 604.18 651.427 603.552 644.603 603.351C638.492 603.171 632.098 603.484 626.031 602.821C623.916 602.59 621.943 602.157 620.408 600.576C617.962 598.057 617.96 594.324 618.16 591.049C619.598 567.437 623.382 543.14 627.164 519.774C628.357 512.41 629.132 503.711 631.778 496.729C632.322 495.292 633.047 494.491 634.184 493.484ZM714.982 606.774C716.468 606.59 717.499 606.569 718.622 605.456C721.021 599.928 721.127 580.294 721.586 573.536Q722.518 559.884 723.815 546.262C724.833 535.699 726.627 525.183 727.495 514.622C727.684 512.331 728.263 508.008 727.339 505.929C727.07 505.324 726.318 504.996 725.734 504.804C720.105 502.957 696.004 502.791 688.014 502.099Q672.029 500.662 656.06 499.046C649.311 498.298 642.555 497.085 635.762 496.952C631.841 504.533 620.465 589.869 622.164 595.992C622.53 597.312 623.201 598.107 624.446 598.688C627.559 600.14 645.095 599.701 649.722 599.98Q682.472 602.224 714.982 606.774Z"/>
	<path d="M703.032 375.484C703.218 375.484 703.404 375.471 703.59 375.484C704.968 375.581 705.256 375.544 706.175 376.503C706.095 377.032 706.123 377.085 705.831 377.636C704.474 380.184 700.31 381.847 697.743 382.842C696.264 382.498 695.772 382.534 694.701 381.409L694.889 380.568C697.046 378.443 700.409 377.102 703.032 375.484Z"/>
	<path d="M713.912 387.299C714.561 387.665 715.082 388.061 715.666 388.518L715.785 389.916C714.775 392.748 712.449 394.732 710.198 396.622C709.903 396.461 709.495 396.259 709.257 396.028C708.778 395.564 708.425 395.046 708.448 394.372C708.531 391.871 712.235 388.989 713.912 387.299Z"/>
	<path fill="#FEFEFE" d="M566.9 489.323C575.703 495.463 584.899 501.567 593.045 508.572Q591.714 511.111 590.269 513.588C569.746 548.213 531.084 571.94 491.718 578.292C485.72 579.26 479.399 580.055 473.327 580.247C468.479 580.401 463.09 579.407 458.366 580.64L457.853 582.108C458.037 582.352 458.125 582.488 458.383 582.705C463.127 586.671 484.045 583.485 490.504 582.829L511.035 680.83C513.501 692.312 515.774 703.855 518.362 715.307C520.225 723.55 522.548 731.825 523.843 740.175C504.609 745.762 484.607 750.691 464.85 753.998C431.322 759.609 367.265 764.447 334.53 755.756C335.968 739.092 338.772 722.511 341.365 705.994Q348.615 660.305 356.429 614.708L363.252 578.112C363.983 574.14 365.05 570.125 365.601 566.135C365.804 564.665 365.722 562.939 365.16 561.554C364.659 560.323 364.501 560.286 363.347 559.802C361.953 561.021 361.674 562.158 361.196 563.918C359.495 570.18 358.964 577.307 357.743 583.74Q351.978 613.872 346.906 644.128C339.241 643.394 331.689 643.376 324.143 641.585C328.859 612.289 346.56 557.207 363.676 533.62C374.304 518.973 392.724 502.96 411.145 499.95C413.325 502.394 415.39 504.905 418.163 506.704C422.489 509.51 427.613 510.759 432.681 509.427C436.683 508.376 439.795 505.576 441.925 502.134C460.149 515.9 479.724 526.08 503.272 524.546C527.459 522.969 551.304 507.164 566.9 489.323Z"/>
	<path d="M559.053 388.289Q559.182 388.223 559.316 388.169Q559.451 388.116 559.589 388.076Q559.729 388.036 559.871 388.01Q560.013 387.983 560.157 387.971Q560.301 387.959 560.446 387.961Q560.591 387.963 560.734 387.979Q560.878 387.995 561.02 388.025Q561.161 388.055 561.299 388.099Q561.437 388.143 561.57 388.2Q561.703 388.257 561.83 388.326Q561.956 388.396 562.076 388.478Q562.195 388.56 562.306 388.653Q562.417 388.746 562.518 388.849Q562.619 388.953 562.709 389.066Q562.8 389.178 562.879 389.3Q562.958 389.421 563.025 389.549Q563.092 389.677 563.146 389.811Q563.2 389.946 563.241 390.085Q563.281 390.223 563.308 390.366Q563.335 390.508 563.348 390.652Q563.361 390.796 563.359 390.941Q563.358 391.085 563.343 391.229Q563.327 391.373 563.298 391.515Q563.268 391.656 563.225 391.794Q563.182 391.933 563.126 392.066Q563.069 392.199 563 392.326Q562.931 392.453 562.85 392.573Q562.769 392.693 562.676 392.804Q562.583 392.915 562.48 393.017Q562.377 393.118 562.265 393.209Q562.153 393.3 562.032 393.38Q561.911 393.46 561.783 393.527Q561.654 393.595 561.519 393.65Q561.385 393.705 561.245 393.746Q561.106 393.787 560.963 393.815Q560.82 393.842 560.675 393.855Q560.53 393.869 560.384 393.868Q560.239 393.867 560.094 393.851Q559.95 393.836 559.807 393.806Q559.665 393.777 559.526 393.733Q559.387 393.69 559.253 393.633Q559.119 393.576 558.991 393.507Q558.863 393.437 558.743 393.355Q558.623 393.273 558.511 393.18Q558.4 393.086 558.298 392.982Q558.196 392.879 558.105 392.765Q558.013 392.652 557.934 392.53Q557.854 392.408 557.787 392.279Q557.72 392.15 557.666 392.015Q557.611 391.88 557.571 391.74Q557.53 391.601 557.503 391.458Q557.476 391.315 557.464 391.17Q557.451 391.025 557.453 390.879Q557.455 390.734 557.471 390.589Q557.487 390.444 557.517 390.302Q557.547 390.16 557.591 390.021Q557.635 389.882 557.692 389.749Q557.75 389.615 557.82 389.487Q557.89 389.36 557.973 389.24Q558.055 389.12 558.149 389.009Q558.243 388.898 558.347 388.797Q558.452 388.695 558.566 388.604Q558.679 388.514 558.802 388.435Q558.924 388.356 559.053 388.289Z"/>
	<path d="M559.152 368.425C560.246 368.501 561.365 368.56 562.445 368.748C563.774 368.979 564.704 369.418 565.525 370.512C565.624 371.831 565.455 372.051 564.838 373.244C562.791 372.844 560.402 372.754 558.77 371.362C558.237 369.879 558.472 369.879 559.152 368.425Z"/>
	<path fill="#FEFEFE" d="M470.765 874.183C471.639 874.039 471.869 874.091 472.691 874.319C473.518 876.592 472.788 879.587 472.897 882.011C473.009 884.489 473.615 886.752 475.617 888.36C477.822 890.133 482.028 890.914 484.711 891.79C492.049 894.188 514.443 900.681 519.823 905.531C519.895 906.41 520.072 906.308 519.562 906.91C514.578 912.794 479.728 916.013 471.405 916.924Q461.082 917.705 450.729 917.621C444.879 917.589 426.695 917.188 422.844 912.288C419.82 908.44 424.235 883.648 424.747 877.539C440.166 877.855 455.524 876.39 470.765 874.183Z"/>
	<path fill="#FEFEFE" d="M392.814 875.105L394.038 875.124C394.841 878.579 393.786 883.358 393.784 887.037C398.811 890.401 415.015 895.068 417.556 898.45C416.699 903.835 411.235 908.384 409.323 913.772L409.128 914.341C402.083 914.491 394.975 915.446 387.942 915.976C381.372 916.47 374.802 916.505 368.217 916.525Q365.957 916.567 363.699 916.477C357.923 916.26 347.379 916.305 343.263 911.505C339.628 907.267 344.042 884.934 344.781 878.456C361.217 878.7 376.618 878.581 392.814 875.105Z"/>
	<path fill="#FEFEFE" d="M597.688 420.315C602.162 424.804 593.897 436.211 594.643 442.427L595.308 442.842C597.099 442.325 598.293 441.127 599.694 439.942C601.323 439.7 602.811 439.607 604.446 439.884C607.742 440.442 610.731 442.271 612.546 445.106C617.671 453.111 610.646 463.333 607.541 470.853C606.362 473.707 605.614 476.575 604.855 479.557C603.707 484.062 598.434 502.621 594.691 504.844L592.691 503.293C585.62 496.937 577.575 491.864 569.687 486.599C579.477 470.653 579.549 463.3 576.331 445.214C576.898 443.602 577.419 442.252 578.397 440.844C581.505 439.497 583.078 442.802 585.912 443.632C588.726 442.302 594.081 425.133 597.351 420.754C597.461 420.606 597.576 420.461 597.688 420.315Z"/>
	<path fill="#FEFEFE" d="M446.576 408.425C446.726 408.553 446.885 408.672 447.027 408.809C453.577 415.127 456.918 427.405 457.565 436.204C458.358 446.992 455.619 457.558 448.371 465.781C444.08 470.648 435.975 477.533 429.275 477.574C427.994 477.582 427.417 477.366 426.519 476.494C426.532 474.029 428.121 471.392 429.337 469.313L429.652 468.783C430.856 467.03 433.294 464.251 432.597 462.028C431.726 459.249 428.197 457.476 425.88 456.042C421.161 453.123 415.936 449.935 414.738 444.051C414.031 440.577 415.159 436.166 417.17 433.283C419.06 430.572 422.092 429.053 425.325 428.631C431.329 427.846 435.634 430.9 440.208 434.243C445.596 426.601 446.409 417.482 446.576 408.425Z"/>
	<path fill="#FEFEFE" d="M323.28 645.628C330.919 647.405 338.427 647.859 346.233 648.08C344.228 660.017 342.489 671.991 340.422 683.923C340.396 684.037 340.393 684.159 340.344 684.265C340.016 684.976 339.8 685.333 339.065 685.606C334.561 687.277 325.542 684.128 321.253 682.324C319.71 671.82 320.61 655.974 323.28 645.628Z"/>
	<path fill="#FEFEFE" d="M395.393 856.237C396.236 860.153 394.975 866.198 394.72 870.298C378.461 874.646 362.322 874.754 345.666 874.207C345.76 869.161 345.67 863.764 346.815 858.834C363.398 860.112 379.018 858.94 395.393 856.237Z"/>
	<path fill="#FEFEFE" d="M475.036 854.604L475.616 854.74C476.421 857.602 474.34 865.928 473.827 869.246C458.645 872.859 442.17 873.589 426.606 873.403L425.986 873.024C425.025 870.279 426.408 862.654 426.609 859.325C443.403 859.856 458.643 858.451 475.036 854.604Z"/>
	<path fill="#FEFEFE" d="M321.084 686.924C327.29 689.143 332.899 690.055 339.475 690.535C338.275 697.466 337.268 704.442 336.168 711.39C336 712.271 335.759 712.873 335.326 713.658C333.959 713.565 332.732 712.564 331.7 711.727C324.896 706.207 322.096 695.211 321.084 686.924Z"/>
	<path d="M189.134 145.146C194.654 145.544 201.535 144.844 206.805 146.208C207.855 146.48 207.996 146.499 208.537 147.462C207.876 148.652 207.746 148.689 206.516 149.299C200.993 148.991 194.018 150.299 188.748 148.872C187.615 148.564 187.401 148.344 186.839 147.406C187.502 146.193 187.918 145.801 189.134 145.146Z"/>
	<path d="M723.652 752.371C724.244 752.61 724.752 753.034 725.276 753.396C725.676 754.674 725.763 754.781 725.039 756.007C722.821 759.765 717.638 761.73 713.622 762.479C712.866 762.243 713.139 762.412 712.527 761.87C711.897 761.312 712.07 761.115 712.007 760.321C713.302 758.418 720.345 755.033 722.886 752.992L723.652 752.371Z"/>
	<path d="M196.514 648.393C197.463 648.507 198.056 648.558 198.874 649.104C199.605 649.592 199.37 649.4 199.547 650.362C198.335 653.206 191.726 655.771 188.936 657.102C187.725 656.83 187.092 656.544 186.112 655.779L186.121 654.647C188.324 651.419 193.059 649.891 196.514 648.393Z"/>
	<path d="M194.064 102.998C194.479 103.106 194.892 103.219 195.3 103.349C198.779 104.464 206.419 106.463 208.194 109.783L207.566 111.798C203.614 111.312 195.995 108.796 193.371 105.75C193.15 104.332 193.336 104.264 194.064 102.998Z"/>
	<path d="M217.915 180.317C218.636 180.402 219.02 180.472 219.654 180.864C220.389 181.32 220.106 181.099 220.31 182.176C218.975 185.764 214.249 189.149 211.391 191.694C209.983 191.349 209.733 191.352 208.759 190.307L208.863 188.953C211.046 185.403 214.706 182.895 217.915 180.317Z"/>
	<path d="M206.705 659.454C208.226 659.539 208.977 659.373 210.22 660.296L210.382 661.609C209.277 664.623 206.659 667.043 204.532 669.403C204.236 669.39 203.936 669.418 203.645 669.363C202.358 669.121 201.97 668.732 201.228 667.768C201.121 664.742 204.804 661.584 206.705 659.454Z"/>
	<path d="M733.303 764.23C734.596 764.43 734.994 764.73 735.745 765.704C735.741 766.194 735.769 766.537 735.606 767.031C734.792 769.491 731.965 771.482 729.801 772.63C728.787 772.599 728.292 772.352 727.421 771.847C726.984 769.701 731.719 766.791 733.034 764.681C733.127 764.532 733.213 764.38 733.303 764.23Z"/>
</svg>
